<svg width="16" height="16" viewBox="0 0 16 16" fill="none" xmlns="http://www.w3.org/2000/svg">
<path fill-rule="evenodd" clip-rule="evenodd" d="M14.76 14.76C14.37 15.151 13.737 15.151 13.346 14.76L10.446 11.86C8.10399 13.527 4.83999 13.325 2.73999 11.224C0.395995 8.88 0.395995 5.082 2.73999 2.739C5.08299 0.396001 8.88199 0.396001 11.225 2.739C13.326 4.84 13.527 8.102 11.86 10.445L14.76 13.344C15.151 13.736 15.151 14.368 14.76 14.76ZM9.81099 4.154C8.24799 2.59 5.71599 2.59 4.15399 4.154C2.59199 5.715 2.59199 8.247 4.15399 9.81C5.71599 11.371 8.24799 11.371 9.81099 9.81C11.373 8.247 11.373 5.715 9.81099 4.154Z" fill="white"/>
</svg>
